<svg xmlns="http://www.w3.org/2000/svg" width="1280" height="720" viewBox="0 0 1280 720" role="img" aria-labelledby="title desc">
  <title id="title">Income Tax Rank Calculator Thumbnail</title>
  <desc id="desc">Tax-themed thumbnail with calculator and ranking bars.</desc>
  <defs>
    <linearGradient id="bg" x1="0" y1="0" x2="1" y2="1">
      <stop offset="0%" stop-color="#0b132b" />
      <stop offset="100%" stop-color="#1c2541" />
    </linearGradient>
    <linearGradient id="card" x1="0" y1="0" x2="0" y2="1">
      <stop offset="0%" stop-color="#ffffff" />
      <stop offset="100%" stop-color="#e8eef8" />
    </linearGradient>
  </defs>

  <rect width="1280" height="720" fill="url(#bg)" />

  <rect x="80" y="90" width="1120" height="540" rx="28" fill="#111a32" stroke="#2f3e66" stroke-width="2" />

  <rect x="145" y="165" width="410" height="390" rx="24" fill="url(#card)" />
  <rect x="180" y="205" width="340" height="72" rx="12" fill="#dce6f8" />
  <text x="200" y="252" font-family="Verdana, Arial, sans-serif" font-size="34" font-weight="700" fill="#243b6b">INR 42,00,000</text>

  <g fill="#2b4a86">
    <rect x="180" y="305" width="95" height="56" rx="10" />
    <rect x="302" y="305" width="95" height="56" rx="10" />
    <rect x="425" y="305" width="95" height="56" rx="10" />
    <rect x="180" y="382" width="95" height="56" rx="10" />
    <rect x="302" y="382" width="95" height="56" rx="10" />
    <rect x="425" y="382" width="95" height="56" rx="10" />
    <rect x="180" y="459" width="217" height="56" rx="10" />
    <rect x="425" y="459" width="95" height="56" rx="10" fill="#ffb703" />
  </g>

  <rect x="640" y="165" width="495" height="390" rx="24" fill="#121f3f" stroke="#3e578c" stroke-width="2" />

  <text x="680" y="235" font-family="Verdana, Arial, sans-serif" font-size="34" font-weight="700" fill="#ffd166">INCOME TAX</text>
  <text x="680" y="278" font-family="Verdana, Arial, sans-serif" font-size="30" font-weight="700" fill="#8ecae6">RANK CALCULATOR</text>

  <text x="680" y="338" font-family="Verdana, Arial, sans-serif" font-size="22" fill="#c9d6f2">Your Rank Range</text>
  <rect x="680" y="352" width="410" height="52" rx="12" fill="#1f3361" />
  <text x="700" y="386" font-family="Verdana, Arial, sans-serif" font-size="24" font-weight="700" fill="#ffffff">3,07,035 to 10,43,093</text>

  <text x="680" y="448" font-family="Verdana, Arial, sans-serif" font-size="22" fill="#c9d6f2">Taxpayer Bucket Size</text>
  <rect x="680" y="462" width="260" height="28" rx="14" fill="#2a9d8f" />
  <rect x="680" y="504" width="370" height="28" rx="14" fill="#46b7d6" />
  <rect x="680" y="546" width="205" height="28" rx="14" fill="#f4a261" />
</svg>
